<svg width="1240" height="520" viewBox="0 0 1240 520" fill="none" xmlns="http://www.w3.org/2000/svg">
<path fill-rule="evenodd" clip-rule="evenodd" d="M1240 0H0V520H1240V0ZM31.4455 35.543C10.9255 92.3706 1.58956 288.356 29.0971 483.62C29.0971 494.049 37.5683 515.544 57.9898 515.544C94.2542 515.544 389.574 497.131 462.837 479.83C459.68 500.24 461.398 514.629 463.712 515.545C489.474 525.746 762.373 497.131 835.636 479.829C832.479 500.239 834.197 514.628 836.511 515.545C862.273 525.746 1119.29 511.759 1192.55 494.457C1213.07 437.629 1222.41 241.644 1194.9 46.3795C1194.9 35.9505 1186.43 14.4556 1166.01 14.4556C1129.75 14.4556 834.426 32.8686 761.163 50.1701C764.32 29.7602 762.602 15.3714 760.288 14.4549C734.526 4.25354 461.627 32.8691 388.364 50.1706C391.521 29.7607 389.803 15.3719 387.489 14.4554C361.727 4.25403 104.709 18.2415 31.4455 35.543Z" fill="#FAFAFA"/>
</svg>
