<svg width="1240" height="520" viewBox="0 0 1240 520" fill="none" xmlns="http://www.w3.org/2000/svg">
<path fill-rule="evenodd" clip-rule="evenodd" d="M1240 0H0V520H1240V0ZM37.0971 476.705C9.58956 281.801 18.9255 89.2011 39.4455 32.4784C59.9655 -24.2444 246.172 27.816 246.172 27.816C246.172 27.816 262.253 -34.7988 492.313 56.2772C493.167 55.413 494.02 53.8136 495.129 51.7358C504.908 33.4048 534.548 -22.1587 759.618 61.4389C853.19 40.4722 1067.07 1.11708 1174.01 11.4299C1194.43 11.4299 1202.9 32.8851 1202.9 43.2949C1230.41 238.199 1221.07 430.799 1200.55 487.522C1180.03 544.244 993.827 492.184 993.827 492.184C993.827 492.184 977.747 554.799 747.687 463.723C746.833 464.587 745.98 466.186 744.871 468.264C735.092 486.595 705.451 542.159 480.382 458.561C386.81 479.528 172.93 518.883 65.9895 508.57C45.568 508.57 37.0971 487.115 37.0971 476.705Z" fill="#FAFAFA"/>
</svg>
